# Blender 4.0.1
# www.blender.org
mtllib buc.mtl
o Cube
v 0.754627 4.960846 -0.754627
v 1.412837 -0.172368 -1.412837
v 0.754627 4.960846 0.754627
v 1.412837 -0.172368 1.412837
v -0.754627 4.960846 -0.754627
v -1.412837 -0.172368 -1.412837
v -0.754627 4.960846 0.754627
v -1.412837 -0.172368 1.412837
v -1.872233 -0.178055 0.000000
v 1.000000 4.963883 0.000000
v -1.000000 4.963883 0.000000
v 1.872233 -0.178055 0.000000
v 0.000000 -0.178055 -1.872233
v 0.000000 4.963883 1.000000
v 0.000000 -0.178055 1.872233
v 0.000000 4.963883 -1.000000
v 0.000000 4.963883 0.000000
v 0.718924 1.810107 -0.718924
v -0.718924 1.834935 0.718924
v 0.718924 1.810107 0.718924
v -0.718924 1.834935 -0.718924
v 0.952688 1.810107 0.000000
v -0.952688 1.654051 0.000000
v 0.000000 1.810107 -0.952688
v 0.000000 1.810107 0.952688
v 0.821322 1.110009 -0.821322
v 0.821322 1.110009 0.821322
v -0.821322 1.110009 -0.821322
v 1.088381 1.108356 -0.000000
v -1.088381 1.108356 -0.000000
v 0.000000 1.108356 -1.088381
v 0.000000 1.108356 1.088381
v -0.821322 1.110009 0.821322
v 0.937776 0.468512 -0.937776
v 0.937776 0.468512 0.937776
v -0.937776 0.468512 -0.937776
v 1.242702 0.465460 0.000000
v -1.242702 0.465460 0.000000
v 0.000000 0.465460 -1.242702
v 0.000000 0.465460 1.242702
v -0.937776 0.468512 0.937776
v -0.710364 3.118614 0.710364
v 0.710364 3.093786 -0.710364
v 0.710364 3.093786 0.710364
v -0.710364 3.118614 -0.710364
v 0.941344 3.095216 0.000000
v -1.010486 3.717430 -0.028655
v 0.000000 3.095216 -0.941344
v 0.000000 3.095216 0.941344
v -1.281613 3.160271 -0.636936
v -1.287744 2.240790 -0.643068
v -1.403278 3.537580 -0.096439
v -1.482291 2.167707 -0.128113
v -1.287744 2.240790 0.386841
v -1.281613 3.160271 0.380710
v -1.782408 3.761140 -0.479075
v -2.361023 3.748215 -0.531412
v -1.758250 3.799222 -0.126084
v -2.458099 3.820573 -0.196924
v -2.354748 3.802384 0.142972
v -1.885723 3.813824 0.118233
v -2.010472 2.822586 0.339690
v -2.159420 2.795139 -0.087736
v -2.013609 2.795502 -0.512457
v -2.159182 4.481154 -0.457047
v -2.659961 4.478392 -0.555261
v -2.057189 4.529398 -0.149934
v -2.757038 4.550749 -0.220774
v -2.653687 4.532560 0.119123
v -2.184662 4.544001 0.094383
v -2.387563 5.325195 -0.533660
v -2.888342 5.322433 -0.631875
v -2.285570 5.373439 -0.226547
v -2.985419 5.394790 -0.297387
v -2.882068 5.376601 0.042509
v -2.413043 5.388041 0.017770
v 1.318519 -1.024847 -1.366048
v 1.318519 -1.024847 1.366048
v -1.413577 -1.024847 -1.366048
v -1.413577 -1.024847 1.366048
v -3.591737 -1.032710 0.000000
v 3.496679 -1.032710 0.000000
v -0.047529 -1.032710 -3.544208
v -0.047529 -1.032710 3.544208
v -0.047529 -1.030878 0.000000
v 1.670462 -0.143074 0.000000
vn -0.0020 1.0000 0.0020
vn -0.3095 -0.0301 0.9504
vn -0.9364 -0.0120 -0.3506
vn -0.5594 0.5798 -0.5924
vn 0.9506 -0.0298 0.3090
vn 0.3090 -0.0298 -0.9506
vn 0.9506 -0.0298 -0.3090
vn 0.6142 0.5346 -0.5804
vn -0.9415 -0.0182 0.3365
vn -0.0020 1.0000 -0.0020
vn 0.0020 1.0000 -0.0020
vn -0.5918 0.5810 0.5588
vn -0.3095 -0.0301 -0.9504
vn 0.5798 0.5360 -0.6136
vn 0.3090 -0.0298 0.9506
vn 0.0020 1.0000 0.0020
vn 0.3039 0.1811 0.9353
vn -0.3015 0.1780 -0.9367
vn -0.9387 0.1986 0.2817
vn 0.9353 0.1811 -0.3039
vn 0.3039 0.1811 -0.9353
vn 0.9353 0.1811 0.3039
vn -0.9387 0.1986 -0.2817
vn -0.3015 0.1780 0.9367
vn -0.3009 0.2228 0.9273
vn -0.9273 0.2228 -0.3009
vn 0.9273 0.2228 0.3009
vn 0.3009 0.2228 -0.9273
vn 0.9273 0.2228 -0.3009
vn -0.9273 0.2228 0.3009
vn -0.3009 0.2228 -0.9273
vn 0.3009 0.2228 0.9273
vn 0.2239 0.6818 0.6964
vn -0.2239 0.6818 -0.6964
vn -0.6964 0.6818 0.2239
vn 0.6964 0.6818 -0.2239
vn 0.2239 0.6818 -0.6964
vn 0.6964 0.6818 0.2239
vn -0.6964 0.6818 -0.2239
vn -0.2239 0.6818 0.6964
vn 0.3092 0.0084 0.9510
vn -0.3090 0.0084 -0.9510
vn -0.3652 0.6601 0.6564
vn 0.9510 0.0084 -0.3092
vn 0.3092 0.0084 -0.9510
vn 0.9510 0.0084 0.3092
vn -0.1123 0.7572 -0.6435
vn -0.3090 0.0084 0.9510
vn 0.5801 0.7259 0.3696
vn -0.0696 0.0511 -0.9963
vn -0.1270 0.0075 -0.9919
vn -0.5903 -0.7253 -0.3542
vn -0.6827 -0.6318 0.3670
vn -0.4993 0.0091 0.8664
vn -0.9079 -0.3776 -0.1818
vn 0.8370 0.3562 0.4154
vn -0.6375 -0.7151 -0.2868
vn 0.6678 0.7001 -0.2526
vn -0.0594 0.0071 0.9982
vn -0.6236 -0.7202 0.3041
vn 0.9157 0.2171 -0.3382
vn -0.0793 0.2268 0.9707
vn -0.9193 -0.2482 0.3053
vn -0.1714 0.0077 -0.9852
vn -0.9122 -0.3149 -0.2620
vn -0.9381 -0.2732 -0.2132
vn 0.8838 0.4115 -0.2227
vn 0.0513 0.0536 0.9972
vn -0.8980 -0.3594 0.2538
vn 0.1370 0.0626 -0.9886
vn 0.0082 0.9999 0.0065
vn 0.0412 0.9819 -0.1849
vn 0.0499 0.1037 0.9934
vn -0.9348 -0.2283 0.2720
vn 0.1925 -0.0369 -0.9806
vn 0.8598 0.2719 0.4323
vn 0.0022 -1.0000 0.0022
vn 0.0022 -1.0000 -0.0022
vn -0.0022 -1.0000 -0.0022
vn -0.0022 -1.0000 0.0022
vn 0.5798 0.5360 0.6136
vn 0.6142 0.5346 0.5804
vn -0.5594 0.5798 0.5924
vn -0.5918 0.5810 -0.5588
vn -0.0000 -0.0000 -1.0000
vt 0.750000 0.625000
vt 0.875000 0.625000
vt 0.875000 0.750000
vt 0.750000 0.750000
vt 0.562500 0.875000
vt 0.625000 0.875000
vt 0.625000 1.000000
vt 0.562500 1.000000
vt 0.562500 0.125000
vt 0.625000 0.125000
vt 0.625000 0.250000
vt 0.562500 0.250000
vt 0.375000 0.250000
vt 0.375000 0.375000
vt 0.562500 0.625000
vt 0.625000 0.625000
vt 0.625000 0.750000
vt 0.562500 0.750000
vt 0.562500 0.375000
vt 0.625000 0.375000
vt 0.625000 0.500000
vt 0.562500 0.500000
vt 0.375000 0.500000
vt 0.375000 0.625000
vt 0.562500 0.000000
vt 0.625000 0.000000
vt 0.750000 0.500000
vt 0.875000 0.500000
vt 0.375000 0.000000
vt 0.375000 0.125000
vt 0.437500 0.750000
vt 0.500000 0.750000
vt 0.500000 0.875000
vt 0.437500 0.875000
vt 0.437500 0.250000
vt 0.500000 0.250000
vt 0.500000 0.375000
vt 0.437500 0.375000
vt 0.437500 0.000000
vt 0.500000 0.000000
vt 0.500000 0.125000
vt 0.437500 0.125000
vt 0.437500 0.500000
vt 0.500000 0.500000
vt 0.500000 0.625000
vt 0.437500 0.625000
vt 0.500000 1.000000
vt 0.437500 1.000000
vt 0.406250 0.875000
vt 0.406250 1.000000
vt 0.406250 0.125000
vt 0.406250 0.250000
vt 0.406250 0.625000
vt 0.406250 0.750000
vt 0.406250 0.375000
vt 0.406250 0.500000
vt 0.406250 0.000000
vt 0.375000 0.750000
vt 0.375000 0.875000
vt 0.375000 1.000000
vt 0.250000 0.625000
vt 0.250000 0.750000
vt 0.250000 0.500000
vt 0.125000 0.500000
vt 0.125000 0.625000
vt 0.125000 0.750000
s 0
usemtl Material
f 17/1/1 11/2/1 7/3/1 14/4/1
f 49/5/2 14/6/2 7/7/2 42/8/2
f 47/9/3 11/10/3 5/11/3 45/12/3
f 6/13/4 13/14/4 83/14/4 79/13/4
f 46/15/5 10/16/5 3/17/5 44/18/5
f 48/19/6 16/20/6 1/21/6 43/22/6
f 43/22/7 1/21/7 10/16/7 46/15/7
f 2/23/8 12/24/8 82/24/8 77/23/8
f 42/25/9 7/26/9 11/10/9 47/9/9
f 16/27/10 5/28/10 11/2/10 17/1/10
f 1/21/11 16/27/11 17/1/11 10/16/11
f 8/29/12 9/30/12 81/30/12 80/29/12
f 45/12/13 5/11/13 16/20/13 48/19/13
f 13/14/14 2/23/14 77/23/14 83/14/14
f 44/18/15 3/17/15 14/6/15 49/5/15
f 10/16/16 17/1/16 14/4/16 3/17/16
f 27/31/17 20/32/17 25/33/17 32/34/17
f 28/35/18 21/36/18 24/37/18 31/38/18
f 33/39/19 19/40/19 23/41/19 30/42/19
f 26/43/20 18/44/20 22/45/20 29/46/20
f 31/38/21 24/37/21 18/44/21 26/43/21
f 29/46/22 22/45/22 20/32/22 27/31/22
f 30/42/23 23/41/23 21/36/23 28/35/23
f 32/34/24 25/33/24 19/47/24 33/48/24
f 40/49/25 32/34/25 33/48/25 41/50/25
f 38/51/26 30/42/26 28/35/26 36/52/26
f 37/53/27 29/46/27 27/31/27 35/54/27
f 39/55/28 31/38/28 26/43/28 34/56/28
f 34/56/29 26/43/29 29/46/29 37/53/29
f 41/57/30 33/39/30 30/42/30 38/51/30
f 36/52/31 28/35/31 31/38/31 39/55/31
f 35/54/32 27/31/32 32/34/32 40/49/32
f 4/58/33 35/54/33 40/49/33 15/59/33
f 6/13/34 36/52/34 39/55/34 13/14/34
f 8/29/35 41/57/35 38/51/35 9/30/35
f 2/23/36 34/56/36 37/53/36 12/24/36
f 13/14/37 39/55/37 34/56/37 2/23/37
f 12/24/38 37/53/38 35/54/38 4/58/38
f 9/30/39 38/51/39 36/52/39 6/13/39
f 15/59/40 40/49/40 41/50/40 8/60/40
f 20/32/41 44/18/41 49/5/41 25/33/41
f 21/36/42 45/12/42 48/19/42 24/37/42
f 42/25/43 47/9/43 52/9/43 55/25/43
f 18/44/44 43/22/44 46/15/44 22/45/44
f 24/37/45 48/19/45 43/22/45 18/44/45
f 22/45/46 46/15/46 44/18/46 20/32/46
f 47/9/47 45/12/47 50/12/47 52/9/47
f 25/33/48 49/5/48 42/8/48 19/47/48
f 55/25/49 52/9/49 58/9/49 61/25/49
f 50/12/50 64/36/50 57/36/50 56/12/50
f 45/12/51 21/36/51 51/36/51 50/12/51
f 21/36/52 23/41/52 53/41/52 51/36/52
f 23/41/53 19/40/53 54/40/53 53/41/53
f 19/47/54 42/8/54 55/8/54 54/47/54
f 57/36/55 59/41/55 68/41/55 66/36/55
f 61/25/56 58/9/56 67/9/56 70/25/56
f 51/36/57 53/41/57 63/41/57 64/36/57
f 52/9/58 50/12/58 56/12/58 58/9/58
f 54/47/59 55/8/59 62/47/59
f 53/41/60 54/40/60 62/40/60 63/41/60
f 67/9/61 65/12/61 71/12/61 73/9/61
f 62/47/62 55/8/62 61/8/62 60/47/62
f 63/41/63 62/40/63 60/40/63 59/41/63
f 64/36/64 50/12/64 51/36/64
f 64/36/65 63/41/65 59/41/65 57/36/65
f 66/36/66 68/41/66 74/41/66 72/36/66
f 58/9/67 56/12/67 65/12/67 67/9/67
f 60/47/68 61/8/68 70/8/68 69/47/68
f 59/41/69 60/40/69 69/40/69 68/41/69
f 56/12/70 57/36/70 66/36/70 65/12/70
f 75/40/71 76/25/71 73/9/71 74/41/71
f 74/41/72 73/9/72 71/12/72 72/36/72
f 69/47/73 70/8/73 76/8/73 75/47/73
f 68/41/74 69/40/74 75/40/74 74/41/74
f 65/12/75 66/36/75 72/36/75 71/12/75
f 70/25/76 67/9/76 73/9/76 76/25/76
f 85/61/77 82/24/77 78/58/77 84/62/77
f 83/63/78 77/23/78 82/24/78 85/61/78
f 79/64/79 83/63/79 85/61/79 81/65/79
f 81/65/80 85/61/80 84/62/80 80/66/80
f 4/58/81 15/59/81 84/59/81 78/58/81
f 12/24/82 4/58/82 78/58/82 82/24/82
f 15/59/83 8/60/83 80/60/83 84/59/83
f 9/30/84 6/13/84 79/13/84 81/30/84
f 37/53/85 12/24/85 82/24/85 86/53/85
o Cube.001
v 5.098547 7.137566 -5.529794
v 3.845805 12.364931 -4.272835
v 0.000000 6.138488 -6.664671
v 0.000000 13.536698 -4.461502
v 6.461754 6.444793 0.000000
v 4.233774 13.624214 0.000000
v 0.000000 15.665709 0.000000
v 0.000000 4.061371 0.000000
v -5.098547 7.137566 -5.529794
v -3.845805 12.364931 -4.272835
v -6.461754 6.444793 0.000000
v -4.233774 13.624214 0.000000
v 5.098547 7.137566 5.529794
v 3.845805 12.364931 4.272835
v 0.000000 6.138488 6.664671
v 0.000000 13.536699 4.461502
v -5.098547 7.137566 5.529794
v -3.845805 12.364931 4.272835
v 2.249358 13.211067 -4.455216
v 4.750411 9.699237 -5.244343
v 6.063178 6.531817 -3.551760
v 3.249054 6.347213 -6.381091
v -0.000000 9.831106 -6.397550
v 4.128314 13.269867 -2.542855
v -0.000000 15.317043 -2.234888
v -0.000000 4.390576 -4.162662
v 2.100223 15.327982 0.000000
v 4.049705 4.527320 -0.000000
v 6.149929 10.077246 0.000000
v -2.249359 13.211067 -4.455216
v -4.750411 9.699237 -5.244343
v -6.063178 6.531817 -3.551760
v -3.249055 6.347213 -6.381091
v -4.128314 13.269868 -2.542855
v -2.100223 15.327982 -0.000000
v -4.049705 4.527320 -0.000000
v -6.149929 10.077245 0.000000
v 2.249359 13.211067 4.455216
v 4.750411 9.699237 5.244343
v 6.063178 6.531817 3.551760
v 3.249055 6.347213 6.381091
v 0.000000 9.831106 6.397550
v 4.128314 13.269868 2.542855
v -0.000000 15.317043 2.234888
v -0.000000 4.390576 4.162662
v -2.249358 13.211067 4.455216
v -4.750411 9.699237 5.244343
v -6.063178 6.531817 3.551760
v -3.249054 6.347213 6.381091
v -4.128314 13.269867 2.542855
v 2.716322 9.739634 -6.210160
v 2.108126 14.942514 -2.303601
v 3.806906 4.794424 -3.995929
v 5.836723 9.906460 -3.062462
v -2.716322 9.739633 -6.210160
v -2.108127 14.942514 -2.303601
v -3.806906 4.794424 -3.995929
v -5.836723 9.906461 -3.062462
v 2.716322 9.739633 6.210160
v 2.108127 14.942514 2.303601
v 3.806906 4.794425 3.995929
v 5.836723 9.906461 3.062462
v -2.716322 9.739634 6.210160
v -2.108126 14.942514 2.303601
v -3.806906 4.794424 3.995929
v -5.836723 9.906460 3.062462
vn 0.0772 0.0673 -0.9947
vn 0.0731 0.4599 -0.8850
vn 0.3670 0.4449 -0.8169
vn 0.3998 0.1287 -0.9075
vn 0.4889 0.7133 -0.5023
vn 0.1159 0.7766 -0.6192
vn 0.1623 0.9741 -0.1573
vn 0.6208 0.7730 -0.1305
vn 0.1071 -0.8182 -0.5648
vn 0.5612 -0.6471 -0.5160
vn 0.6192 -0.7801 -0.0892
vn 0.1113 -0.9909 -0.0757
vn 0.8931 0.1421 -0.4267
vn 0.7976 0.4461 -0.4059
vn 0.8769 0.4681 -0.1094
vn 0.9907 0.0836 -0.1077
vn -0.0772 0.0673 -0.9947
vn -0.3998 0.1287 -0.9075
vn -0.3670 0.4449 -0.8169
vn -0.0731 0.4599 -0.8850
vn -0.4889 0.7133 -0.5023
vn -0.6208 0.7730 -0.1305
vn -0.1623 0.9741 -0.1573
vn -0.1159 0.7766 -0.6192
vn -0.1071 -0.8182 -0.5648
vn -0.1113 -0.9909 -0.0757
vn -0.6192 -0.7801 -0.0892
vn -0.5612 -0.6471 -0.5160
vn -0.8931 0.1421 -0.4267
vn -0.9907 0.0836 -0.1077
vn -0.8769 0.4681 -0.1094
vn -0.7976 0.4461 -0.4059
vn 0.0772 0.0673 0.9947
vn 0.3998 0.1287 0.9075
vn 0.3670 0.4449 0.8169
vn 0.0731 0.4599 0.8850
vn 0.4889 0.7133 0.5023
vn 0.6208 0.7730 0.1305
vn 0.1623 0.9741 0.1573
vn 0.1159 0.7766 0.6192
vn 0.1071 -0.8182 0.5648
vn 0.1113 -0.9909 0.0757
vn 0.6192 -0.7801 0.0892
vn 0.5612 -0.6471 0.5160
vn 0.8931 0.1421 0.4267
vn 0.9907 0.0836 0.1077
vn 0.8769 0.4681 0.1094
vn 0.7976 0.4461 0.4059
vn -0.0772 0.0673 0.9947
vn -0.0731 0.4599 0.8850
vn -0.3670 0.4449 0.8169
vn -0.3998 0.1287 0.9075
vn -0.4889 0.7133 0.5023
vn -0.1159 0.7766 0.6192
vn -0.1623 0.9741 0.1573
vn -0.6208 0.7730 0.1305
vn -0.1071 -0.8182 0.5648
vn -0.5612 -0.6471 0.5160
vn -0.6192 -0.7801 0.0892
vn -0.1113 -0.9909 0.0757
vn -0.8931 0.1421 0.4267
vn -0.7976 0.4461 0.4059
vn -0.8769 0.4681 0.1094
vn -0.9907 0.0836 0.1077
vt 0.375000 0.375000
vt 0.500000 0.375000
vt 0.500000 0.437537
vt 0.375000 0.437500
vt 0.625000 0.375000
vt 0.625000 0.437500
vt 0.625000 0.500000
vt 0.500000 0.500375
vt 0.375000 0.500000
vt 0.687500 0.500000
vt 0.685764 0.563849
vt 0.607639 0.563858
vt 0.750000 0.500000
vt 0.750000 0.563849
vt 0.750000 0.627697
vt 0.687500 0.627697
vt 0.625000 0.627697
vt 0.250000 0.500000
vt 0.312500 0.500000
vt 0.314236 0.563849
vt 0.250000 0.563849
vt 0.392361 0.563858
vt 0.375000 0.627697
vt 0.312500 0.627697
vt 0.250000 0.627697
vt 0.500000 0.563886
vt 0.500000 0.627697
vt 0.500000 0.500375
vt 0.607639 0.563858
vt 0.392361 0.563858
s 0
usemtl Material.001
f 89/67/86 109/68/86 137/69/86 108/70/86
f 109/68/87 90/71/87 105/72/87 137/69/87
f 137/69/88 105/72/88 88/73/88 106/74/88
f 108/70/89 137/69/89 106/74/89 87/75/89
f 88/73/90 105/76/90 138/77/90 110/78/90
f 105/76/91 90/79/91 111/80/91 138/77/91
f 138/77/92 111/80/92 93/81/92 113/82/92
f 110/78/93 138/77/93 113/82/93 92/83/93
f 89/84/94 108/85/94 139/86/94 112/87/94
f 108/85/95 87/75/95 107/88/95 139/86/95
f 139/86/96 107/88/96 91/89/96 114/90/96
f 112/87/97 139/86/97 114/90/97 94/91/97
f 87/75/98 106/74/98 140/92/98 107/88/98
f 106/74/99 88/73/99 110/78/99 140/92/99
f 140/92/100 110/78/100 92/83/100 115/93/100
f 107/88/101 140/92/101 115/93/101 91/89/101
f 89/67/102 119/70/102 141/69/102 109/68/102
f 119/70/103 95/75/103 117/94/103 141/69/103
f 141/69/104 117/94/104 96/73/104 116/72/104
f 109/68/105 141/69/105 116/72/105 90/71/105
f 96/73/106 120/95/106 142/77/106 116/76/106
f 120/95/107 98/83/107 121/82/107 142/77/107
f 142/77/108 121/82/108 93/81/108 111/80/108
f 116/76/109 142/77/109 111/80/109 90/79/109
f 89/84/110 112/87/110 143/86/110 119/85/110
f 112/87/111 94/91/111 122/90/111 143/86/111
f 143/86/112 122/90/112 97/89/112 118/96/112
f 119/85/113 143/86/113 118/96/113 95/75/113
f 95/75/114 118/96/114 144/92/114 117/94/114
f 118/96/115 97/89/115 123/93/115 144/92/115
f 144/92/116 123/93/116 98/83/116 120/95/116
f 117/94/117 144/92/117 120/95/117 96/73/117
f 101/67/118 127/70/118 145/69/118 128/68/118
f 127/70/119 99/75/119 125/94/119 145/69/119
f 145/69/120 125/94/120 100/73/120 124/72/120
f 128/68/121 145/69/121 124/72/121 102/71/121
f 100/73/122 129/95/122 146/77/122 124/76/122
f 129/95/123 92/83/123 113/82/123 146/77/123
f 146/77/124 113/82/124 93/81/124 130/80/124
f 124/76/125 146/77/125 130/80/125 102/79/125
f 101/84/126 131/87/126 147/86/126 127/85/126
f 131/87/127 94/91/127 114/90/127 147/86/127
f 147/86/128 114/90/128 91/89/128 126/96/128
f 127/85/129 147/86/129 126/96/129 99/75/129
f 99/75/130 126/96/130 148/92/130 125/94/130
f 126/96/131 91/89/131 115/93/131 148/92/131
f 148/92/132 115/93/132 92/83/132 129/95/132
f 125/94/133 148/92/133 129/95/133 100/73/133
f 101/67/134 128/68/134 149/69/134 135/70/134
f 128/68/135 102/71/135 132/72/135 149/69/135
f 149/69/136 132/72/136 104/73/136 133/74/136
f 135/70/137 149/69/137 133/74/137 103/75/137
f 104/73/138 132/76/138 150/77/138 136/78/138
f 132/76/139 102/79/139 130/80/139 150/77/139
f 150/77/140 130/80/140 93/81/140 121/82/140
f 136/78/141 150/77/141 121/82/141 98/83/141
f 101/84/142 135/85/142 151/86/142 131/87/142
f 135/85/143 103/75/143 134/88/143 151/86/143
f 151/86/144 134/88/144 97/89/144 122/90/144
f 131/87/145 151/86/145 122/90/145 94/91/145
f 103/75/146 133/74/146 152/92/146 134/88/146
f 133/74/147 104/73/147 136/78/147 152/92/147
f 152/92/148 136/78/148 98/83/148 123/93/148
f 134/88/149 152/92/149 123/93/149 97/89/149
