# Blender 4.0.1
# www.blender.org
mtllib grib2.mtl
o Cube
v -0.126687 -0.113279 0.127348
v -0.082827 0.809261 0.083697
v -0.126687 -0.113279 -0.127348
v -0.082827 0.809261 -0.083697
v 0.128010 -0.113279 0.127348
v 0.084567 0.809261 0.083697
v 0.128010 -0.113279 -0.127348
v 0.084567 0.809261 -0.083697
v -0.179107 -0.127032 0.000000
v -0.117279 0.818300 0.000000
v 0.180431 -0.127032 0.000000
v 0.119020 0.818300 0.000000
v 0.003096 -0.127032 -0.179769
v 0.002470 0.818300 -0.118149
v 0.003096 -0.127032 0.179769
v 0.002470 0.818300 0.118149
v 0.001232 1.647931 0.000000
v 0.003096 -0.127032 0.000000
v 0.006718 0.510951 0.540234
v 0.006718 0.510951 -0.540234
v 0.539638 0.510951 0.000000
v -0.540831 0.510951 0.000000
v 0.382106 0.495480 -0.382702
v 0.382106 0.495480 0.382702
v -0.383299 0.495480 -0.382702
v -0.383299 0.495480 0.382702
v 0.002431 1.332994 0.121438
v 0.002431 1.332994 -0.121418
v 0.122215 1.332994 0.000010
v -0.120641 1.332994 0.000010
v 0.086807 1.329516 -0.086009
v 0.086807 1.329516 0.086030
v -0.085232 1.329516 -0.086009
v -0.085232 1.329516 0.086030
v -0.086553 0.472988 0.087406
v -0.143038 1.002603 0.143584
v -0.143038 1.002603 -0.143584
v 0.144130 1.002603 0.143584
v 0.144130 1.002603 -0.143584
v -0.202142 1.008407 0.000000
v 0.203234 1.008407 0.000000
v 0.003290 1.008407 -0.202688
v 0.003290 1.008407 0.202688
v -0.086553 0.472988 -0.087406
v 0.088258 0.472988 -0.087406
v 0.088258 0.472988 0.087406
v 0.124237 0.475400 0.000000
v -0.122532 0.475400 0.000000
v 0.002523 0.475400 0.123384
v 0.002523 0.475400 -0.123384
v -0.082602 0.682734 0.083473
v -0.082602 0.682734 -0.083473
v 0.084344 0.682734 -0.083473
v 0.084344 0.682734 0.083473
v 0.118704 0.689311 0.000000
v -0.116962 0.689311 0.000000
v 0.002467 0.689311 0.117833
v 0.002467 0.689311 -0.117833
v -0.094857 0.179550 -0.095670
v 0.096483 0.179550 -0.095670
v 0.096483 0.179550 0.095670
v 0.135864 0.175221 0.000000
v -0.134238 0.175221 0.000000
v 0.002642 0.175221 0.135051
v 0.002642 0.175221 -0.135051
v -0.094857 0.179550 0.095670
v -0.109114 0.032543 -0.109860
v 0.110605 0.032543 -0.109860
v 0.110605 0.032543 0.109860
v 0.155827 0.024048 0.000000
v -0.154336 0.024048 0.000000
v 0.002845 0.024048 0.155081
v 0.002845 0.024048 -0.155081
v -0.109114 0.032543 0.109860
v 0.231579 0.749682 -0.231453
v 0.004550 0.759038 -0.326726
v -0.231327 0.749682 -0.231453
v -0.231327 0.749682 0.231453
v 0.004550 0.759038 0.326726
v -0.326600 0.759038 0.000000
v 0.231579 0.749682 0.231453
v 0.326852 0.759038 0.000000
v 0.002701 1.170461 -0.144619
v -0.101705 1.166319 0.102448
v 0.103190 1.166319 -0.102448
v 0.002701 1.170461 0.144619
v -0.143876 1.170461 0.000000
v -0.101705 1.166319 -0.102448
v 0.145361 1.170461 0.000000
v 0.103190 1.166319 0.102448
v 0.182844 0.751690 -0.251904
v 0.251706 0.751658 -0.182557
v 0.211398 0.808050 -0.211175
v 0.257725 0.705527 -0.257725
v 0.256048 0.708359 0.256040
v 0.177011 0.751931 0.254352
v 0.244559 0.750957 0.199919
v 0.209157 0.814531 0.208923
v -0.216781 0.791350 0.216976
v -0.256148 0.752119 0.171153
v -0.242012 0.731809 0.242087
v -0.204557 0.750744 0.242265
v -0.247097 0.723303 -0.247148
v -0.244261 0.750952 -0.200029
v -0.210577 0.809123 -0.210802
v -0.173843 0.751962 -0.254671
v 0.026580 1.007447 -0.192914
v 0.003099 1.060986 -0.183847
v -0.032296 1.006995 -0.188314
v 0.003412 0.984242 -0.214708
v 0.219549 0.975495 0.000000
v 0.188181 1.050556 0.000000
v 0.191235 1.007228 0.029150
v 0.193491 1.007450 -0.023669
v 0.003434 0.980015 0.216810
v 0.024785 1.007521 0.193667
v -0.022121 1.007399 0.192424
v 0.003129 1.052816 0.186774
v -0.187541 1.049015 0.000000
v -0.194690 1.007675 0.018102
v -0.191536 1.007365 -0.025764
v -0.215891 0.980859 0.000000
v -0.078057 1.368808 -0.078912
v -0.067117 1.330235 -0.093326
v -0.091043 1.305804 -0.091837
v -0.093794 1.330357 -0.065210
v 0.063599 1.330473 -0.095748
v 0.096784 1.330496 -0.061770
v 0.093157 1.298846 -0.092366
v 0.080155 1.367428 -0.079302
v 0.062192 1.330531 0.096359
v 0.093617 1.292767 0.092829
v 0.096522 1.330470 0.062428
v 0.080079 1.367697 0.079226
v -0.092831 1.330262 0.067570
v -0.082405 1.353503 0.083239
v -0.067394 1.330224 0.093235
v -0.091569 1.298934 0.092359
vn -0.9248 -0.0023 -0.3805
vn 0.3868 -0.0023 -0.9222
vn 0.9248 -0.0023 0.3805
vn -0.3743 -0.0023 0.9273
vn 0.0547 -0.9970 0.0540
vn 0.2678 -0.7817 0.5633
vn -0.2762 -0.7823 -0.5583
vn 0.0547 -0.9970 -0.0540
vn 0.9248 -0.0023 -0.3805
vn -0.9248 -0.0023 0.3805
vn -0.0530 -0.9972 -0.0537
vn -0.2762 -0.7823 0.5583
vn 0.2678 -0.7817 -0.5633
vn -0.0530 -0.9972 0.0537
vn 0.3868 -0.0023 0.9222
vn -0.3743 -0.0023 -0.9273
vn -0.3218 0.3299 -0.8874
vn -0.8857 0.3314 0.3252
vn 0.8976 0.2256 0.3786
vn -0.8962 0.2320 -0.3783
vn 0.5596 -0.7830 0.2715
vn 0.5596 -0.7830 -0.2715
vn -0.5620 -0.7810 0.2724
vn -0.5620 -0.7810 -0.2724
vn -0.9232 0.1271 0.3626
vn -0.3558 0.1266 -0.9259
vn 0.3684 0.1264 -0.9210
vn -0.3568 0.1267 0.9256
vn 0.9235 0.1258 -0.3624
vn 0.3692 0.1263 0.9207
vn -0.9237 0.1266 -0.3616
vn 0.9231 0.1261 0.3632
vn 0.8356 0.4142 0.3607
vn 0.3664 0.4159 0.8323
vn -0.8346 0.4166 -0.3604
vn -0.8346 0.4166 0.3604
vn -0.3549 0.4149 0.8378
vn 0.3664 0.4159 -0.8323
vn -0.3549 0.4149 -0.8378
vn 0.8356 0.4142 -0.3607
vn -0.3739 0.0363 -0.9267
vn 0.3864 0.0364 0.9216
vn -0.9242 0.0364 0.3801
vn 0.9242 0.0362 -0.3801
vn -0.3739 0.0363 0.9267
vn 0.9242 0.0362 0.3801
vn 0.3864 0.0364 -0.9216
vn -0.9242 0.0364 -0.3801
vn -0.3755 0.0242 -0.9265
vn 0.3880 0.0243 0.9214
vn -0.9240 0.0243 0.3816
vn 0.9240 0.0241 -0.3816
vn -0.3755 0.0242 0.9265
vn 0.9240 0.0241 0.3816
vn 0.3880 0.0243 -0.9214
vn -0.9240 0.0243 -0.3816
vn -0.9203 0.1237 -0.3711
vn 0.3773 0.1235 -0.9178
vn 0.9204 0.1229 0.3712
vn -0.3652 0.1231 0.9228
vn 0.9204 0.1229 -0.3712
vn -0.9203 0.1237 0.3711
vn 0.3773 0.1235 0.9178
vn -0.3652 0.1231 -0.9228
vn -0.3581 0.1518 -0.9213
vn 0.3700 0.1522 0.9165
vn -0.9189 0.1525 0.3639
vn 0.9190 0.1515 -0.3641
vn -0.3581 0.1518 0.9213
vn 0.9190 0.1515 0.3641
vn 0.3700 0.1522 -0.9165
vn -0.9189 0.1525 -0.3639
vn 0.3849 0.2258 -0.8949
vn -0.3754 0.1506 0.9145
vn 0.8857 0.3301 -0.3264
vn 0.3318 0.3318 0.8831
vn 0.7189 0.6166 -0.3209
vn -0.3155 0.6174 -0.7206
vn 0.3256 0.6184 -0.7152
vn -0.3155 0.6174 0.7206
vn -0.7170 0.6192 0.3202
vn -0.7170 0.6192 -0.3202
vn 0.3256 0.6184 0.7152
vn 0.7189 0.6166 0.3209
vn 0.8740 0.3121 0.3724
vn -0.8734 0.3140 -0.3722
vn 0.3784 0.3135 0.8709
vn 0.8740 0.3121 -0.3724
vn -0.3664 0.3127 0.8764
vn 0.3784 0.3135 -0.8709
vn -0.3664 0.3127 -0.8764
vn -0.8734 0.3140 0.3722
vn -0.8849 0.3319 -0.3268
vn -0.3723 0.2304 -0.8991
vn -0.8759 0.3063 -0.3729
vn -0.3670 0.3058 -0.8785
vn 0.3825 0.2628 -0.8858
vn 0.8979 0.2245 -0.3787
vn 0.3317 0.3315 -0.8832
vn 0.8886 0.2620 -0.3764
vn 0.3848 0.2272 0.8946
vn 0.8952 0.2358 0.3780
vn 0.8857 0.3301 0.3265
vn 0.3843 0.2363 0.8925
vn -0.3704 0.2612 0.8914
vn -0.9118 0.1519 0.3815
vn -0.8886 0.2620 0.3764
vn -0.3202 0.3298 0.8881
vt 0.587865 0.125000
vt 0.625000 0.125000
vt 0.625000 0.250000
vt 0.587865 0.250000
vt 0.587865 0.376692
vt 0.625000 0.376692
vt 0.625000 0.500000
vt 0.587865 0.500000
vt 0.587865 0.625000
vt 0.625000 0.625000
vt 0.625000 0.750000
vt 0.587865 0.750000
vt 0.587866 0.873308
vt 0.625000 0.873308
vt 0.625000 1.000000
vt 0.587865 1.000000
vt 0.251692 0.625000
vt 0.375000 0.625000
vt 0.375000 0.750000
vt 0.251692 0.750000
vt 0.251692 0.500000
vt 0.375000 0.500000
vt 0.587865 0.000000
vt 0.625000 0.000000
vt 0.125000 0.500000
vt 0.125000 0.625000
vt 0.125000 0.750000
vt 0.625000 0.276181
vt 0.625000 0.265655
vt 0.625000 0.026825
vt 0.625000 0.009438
vt 0.625000 0.715704
vt 0.625000 0.219775
vt 0.625000 0.376692
vt 0.625000 0.250000
vt 0.625000 0.466084
vt 0.625000 0.873308
vt 0.625000 0.974219
vt 0.625000 0.535224
vt 0.625000 0.785972
vt 0.625000 0.732970
vt 0.625000 0.779638
vt 0.625000 0.854488
vt 0.625000 0.233029
vt 0.625000 0.032566
vt 0.625000 0.109241
vt 0.625000 0.985622
vt 0.625000 0.500000
vt 0.625000 0.473530
vt 0.625000 0.280875
vt 0.625000 0.345881
vt 0.625000 0.526407
vt 0.625000 0.604395
vt 0.453563 0.250000
vt 0.531934 0.250000
vt 0.531934 0.376692
vt 0.453563 0.376692
vt 0.453563 0.750000
vt 0.531934 0.750000
vt 0.531934 0.873308
vt 0.453563 0.873307
vt 0.453563 0.000000
vt 0.531934 0.000000
vt 0.531934 0.125000
vt 0.453563 0.125000
vt 0.453563 0.500000
vt 0.531934 0.500000
vt 0.531934 0.625000
vt 0.453563 0.625000
vt 0.531934 1.000000
vt 0.453563 1.000000
vt 0.414198 0.125000
vt 0.414197 0.250000
vt 0.414197 0.376692
vt 0.414197 0.500000
vt 0.414197 0.625000
vt 0.414197 0.750000
vt 0.414197 0.873307
vt 0.414197 1.000000
vt 0.414197 0.000000
vt 0.375000 0.250000
vt 0.375000 0.376692
vt 0.375000 0.873308
vt 0.375000 0.000000
vt 0.375000 0.125000
vt 0.375000 1.000000
vt 0.625000 1.000000
vt 0.625000 0.514904
vt 0.625000 0.764807
vt 0.625000 0.650377
vt 0.625000 0.147430
vt 0.625000 0.895309
vt 0.625000 0.397083
s 0
usemtl leg
f 56/1/1 10/2/1 4/3/1 52/4/1
f 58/5/2 14/6/2 8/7/2 53/8/2
f 55/9/3 12/10/3 6/11/3 54/12/3
f 57/13/4 16/14/4 2/15/4 51/16/4
f 18/17/5 11/18/5 5/19/5 15/20/5
f 14/6/6 4/3/6 25/3/6 20/6/6
f 16/14/7 6/11/7 24/11/7 19/14/7
f 13/21/8 7/22/8 11/18/8 18/17/8
f 53/8/9 8/7/9 12/10/9 55/9/9
f 51/23/10 2/24/10 10/2/10 56/1/10
f 3/25/11 13/21/11 18/17/11 9/26/11
f 8/7/12 14/6/12 20/6/12 23/7/12
f 2/15/13 16/14/13 19/14/13 26/15/13
f 9/26/14 18/17/14 15/20/14 1/27/14
f 54/12/15 6/11/15 16/14/15 57/13/15
f 52/4/16 4/3/16 14/6/16 58/5/16
f 32/11/19 133/32/19 134/11/19
f 33/3/20 126/33/20 123/3/20
f 4/3/21 10/2/21 22/2/21 25/3/21
f 10/2/22 2/24/22 26/24/22 22/2/22
f 12/10/23 8/7/23 23/7/23 21/10/23
f 6/11/24 12/10/24 21/10/24 24/11/24
f 81/11/33 97/41/33 98/11/33
f 77/3/35 104/44/35 105/3/35
f 78/15/37 102/47/37 99/15/37
f 75/48/38 91/49/38 93/48/38
f 59/54/41 44/55/41 50/56/41 65/57/41
f 61/58/42 46/59/42 49/60/42 64/61/42
f 66/62/43 35/63/43 48/64/43 63/65/43
f 60/66/44 45/67/44 47/68/44 62/69/44
f 64/61/45 49/60/45 35/70/45 66/71/45
f 62/69/46 47/68/46 46/59/46 61/58/46
f 65/57/47 50/56/47 45/67/47 60/66/47
f 63/65/48 48/64/48 44/55/48 59/54/48
f 44/55/49 52/4/49 58/5/49 50/56/49
f 46/59/50 54/12/50 57/13/50 49/60/50
f 35/63/51 51/23/51 56/1/51 48/64/51
f 45/67/52 53/8/52 55/9/52 47/68/52
f 49/60/53 57/13/53 51/16/53 35/70/53
f 47/68/54 55/9/54 54/12/54 46/59/54
f 50/56/55 58/5/55 53/8/55 45/67/55
f 48/64/56 56/1/56 52/4/56 44/55/56
f 71/72/57 63/65/57 59/54/57 67/73/57
f 73/74/58 65/57/58 60/66/58 68/75/58
f 70/76/59 62/69/59 61/58/59 69/77/59
f 72/78/60 64/61/60 66/71/60 74/79/60
f 68/75/61 60/66/61 62/69/61 70/76/61
f 74/80/62 66/62/62 63/65/62 71/72/62
f 69/77/63 61/58/63 64/61/63 72/78/63
f 67/73/64 59/54/64 65/57/64 73/74/64
f 3/81/65 67/73/65 73/74/65 13/82/65
f 5/19/66 69/77/66 72/78/66 15/83/66
f 1/84/67 74/80/67 71/72/67 9/85/67
f 7/22/68 68/75/68 70/76/68 11/18/68
f 15/83/69 72/78/69 74/79/69 1/86/69
f 11/18/70 70/76/70 69/77/70 5/19/70
f 13/82/71 73/74/71 68/75/71 7/22/71
f 9/85/72 71/72/72 67/73/72 3/81/72
f 31/7/73 127/36/73 130/7/73
f 34/15/74 137/38/74 136/87/74
f 43/14/87 116/43/87 118/14/87
f 41/10/88 114/53/88 112/10/88
f 42/6/91 109/51/91 108/6/91
f 40/2/92 120/46/92 119/2/92
f 94/48/79 91/49/79 75/48/79
f 92/52/77 94/48/77 75/48/77
f 93/48/40 92/52/40 75/48/40
f 95/11/84 97/41/84 81/11/84
f 98/11/34 96/42/34 81/11/34
f 96/42/83 95/11/83 81/11/83
f 101/15/80 102/47/80 78/15/80
f 99/24/36 100/45/36 78/24/36
f 100/45/81 101/24/81 78/24/81
f 106/50/78 103/3/78 77/3/78
f 103/3/82 104/44/82 77/3/82
f 105/3/39 106/50/39 77/3/39
f 110/6/39 109/51/39 42/6/39
f 108/6/90 107/93/90 42/6/90
f 107/93/38 110/6/38 42/6/38
f 112/10/85 113/90/85 41/10/85
f 113/90/33 111/10/33 41/10/33
f 111/10/40 114/53/40 41/10/40
f 115/14/34 116/43/34 43/14/34
f 118/14/89 117/92/89 43/14/89
f 117/92/37 115/14/37 43/14/37
f 119/2/86 121/91/86 40/2/86
f 122/2/36 120/46/36 40/2/36
f 121/91/35 122/2/35 40/2/35
f 123/29/94 124/28/94 33/3/94
f 125/3/95 126/33/95 33/3/95
f 124/28/96 125/3/96 33/3/96
f 129/7/97 127/36/97 31/7/97
f 130/88/98 128/39/98 31/7/98
f 128/39/100 129/7/100 31/7/100
f 134/89/101 131/40/101 32/11/101
f 132/11/102 133/32/102 32/11/102
f 131/40/104 132/11/104 32/11/104
f 138/15/105 137/38/105 34/15/105
f 136/31/106 135/30/106 34/24/106
f 135/30/107 138/24/107 34/24/107
usemtl Material.001
f 28/6/17 124/28/17 123/29/17 17/6/17
f 30/2/18 135/30/18 136/31/18 17/2/18
f 87/2/25 84/24/25 138/24/25 135/30/25 30/2/25
f 83/34/26 88/35/26 125/3/26 124/28/26 28/6/26
f 85/7/27 83/34/27 28/6/27 127/36/27 129/7/27
f 84/15/28 86/37/28 27/14/28 137/38/28 138/15/28
f 89/10/29 85/7/29 129/7/29 128/39/29 29/10/29
f 86/37/30 90/11/30 132/11/30 131/40/30 27/14/30
f 88/35/31 87/2/31 30/2/31 126/33/31 125/3/31
f 90/11/32 89/10/32 29/10/32 133/32/32 132/11/32
f 79/14/34 96/42/34 98/11/34 38/11/34 116/43/34 115/14/34
f 80/2/36 100/45/36 99/24/36 36/24/36 120/46/36 122/2/36
f 76/6/39 106/50/39 105/3/39 37/3/39 109/51/39 110/6/39
f 82/10/40 92/52/40 93/48/40 39/7/40 114/53/40 111/10/40
f 29/10/75 128/39/75 130/88/75 17/10/75
f 27/14/76 131/40/76 134/89/76 17/14/76
f 21/10/77 23/7/77 94/48/77 92/52/77 82/10/77
f 20/6/78 25/3/78 103/3/78 106/50/78 76/6/78
f 23/7/79 20/6/79 76/6/79 91/49/79 94/48/79
f 26/15/80 19/14/80 79/14/80 102/47/80 101/15/80
f 22/2/81 26/24/81 101/24/81 100/45/81 80/2/81
f 25/3/82 22/2/82 80/2/82 104/44/82 103/3/82
f 19/14/83 24/11/83 95/11/83 96/42/83 79/14/83
f 24/11/84 21/10/84 82/10/84 97/41/84 95/11/84
f 38/11/85 113/90/85 112/10/85 89/10/85 90/11/85
f 37/3/86 121/91/86 119/2/86 87/2/86 88/35/86
f 36/15/89 117/92/89 118/14/89 86/37/89 84/15/89
f 39/7/90 107/93/90 108/6/90 83/34/90 85/7/90
f 93/48/38 91/49/38 76/6/38 110/6/38 107/93/38 39/7/38
f 98/11/33 97/41/33 82/10/33 111/10/33 113/90/33 38/11/33
f 99/15/37 102/47/37 79/14/37 115/14/37 117/92/37 36/15/37
f 105/3/35 104/44/35 80/2/35 122/2/35 121/91/35 37/3/35
f 108/6/91 109/51/91 37/3/91 88/35/91 83/34/91
f 112/10/88 114/53/88 39/7/88 85/7/88 89/10/88
f 118/14/87 116/43/87 38/11/87 90/11/87 86/37/87
f 119/2/92 120/46/92 36/24/92 84/24/92 87/2/92
f 123/3/93 126/33/93 30/2/93 17/3/93
f 130/7/99 127/36/99 28/6/99 17/7/99
f 134/11/103 133/32/103 29/10/103 17/11/103
f 136/87/108 137/38/108 27/14/108 17/15/108
