# Blender 4.0.1
# www.blender.org
mtllib stone2.mtl
o Cube
v -0.905933 0.094463 0.905933
v -0.767445 1.230523 0.767445
v -0.905933 0.094463 -0.905933
v -0.767445 1.230523 -0.767445
v 1.340009 -0.218310 0.825031
v 0.767445 1.230523 0.767445
v 1.340009 -0.218310 -0.754389
v 0.767445 1.230523 -0.767445
v -1.132879 -0.030012 0.000000
v -1.020038 0.662493 1.020038
v -0.907196 1.354999 -0.000000
v -1.020037 0.662493 -1.020038
v -0.000000 -0.030012 -1.132879
v 0.000000 1.354999 -0.907196
v 1.020038 0.662493 -1.020037
v 1.941370 -0.211758 -0.000000
v 0.907196 1.354999 0.000000
v 1.020037 0.662493 1.020038
v 0.000000 -0.030012 1.132879
v -0.000000 1.354999 0.907196
v -1.404811 0.662493 0.000000
v 0.000000 0.662493 -1.404811
v 1.404811 0.662493 0.000000
v -0.000000 0.662493 1.404811
v 0.000000 -0.291236 0.000000
v -0.000000 1.616222 0.000000
v 2.035960 -0.006616 -0.687027
v 0.892541 -0.101014 -1.106508
v 2.122493 0.424157 -0.773560
v 2.035960 -0.006616 0.687027
v 2.208068 -0.101014 -0.000000
v 2.122493 0.424157 0.773560
v 0.979928 -0.101014 1.100654
v 0.892541 0.424157 -1.312732
v 2.414291 0.424157 0.000000
v 0.979928 0.424157 1.306877
vn -0.9021 -0.3040 0.3062
vn -0.8019 0.5318 0.2723
vn -0.8019 0.5318 -0.2723
vn -0.9021 -0.3040 -0.3062
vn -0.3062 -0.3040 -0.9021
vn -0.2723 0.5318 -0.8019
vn 0.2723 0.5318 -0.8019
vn 0.1238 -0.8444 0.5211
vn 0.3384 -0.9134 0.2262
vn 0.8019 0.5318 -0.2723
vn 0.8019 0.5318 0.2723
vn -0.0016 -0.3655 -0.9308
vn 0.2289 0.9696 0.0864
vn 0.2723 0.5318 0.8019
vn -0.2723 0.5318 0.8019
vn -0.3062 -0.3040 0.9021
vn -0.2038 -0.9575 -0.2038
vn -0.0181 -0.9916 -0.1280
vn -0.0214 -0.9922 0.1225
vn -0.2038 -0.9575 0.2038
vn 0.2368 0.9423 -0.2368
vn -0.2368 0.9423 -0.2368
vn -0.2368 0.9423 0.2368
vn 0.2368 0.9423 0.2368
vn 0.3673 -0.3026 -0.8795
vn 0.9021 -0.3040 -0.3062
vn 0.9021 -0.3040 0.3062
vn 0.3880 -0.3018 0.8708
vn 0.1048 -0.8959 -0.4317
vn 0.3235 -0.9180 -0.2296
vn 0.2289 0.9696 -0.0864
vn 0.0041 -0.3655 0.9308
vn 0.2706 0.7215 0.6373
vn 0.2778 0.6821 -0.6764
vt 0.375000 0.000000
vt 0.500000 0.000000
vt 0.500000 0.125000
vt 0.375000 0.125000
vt 0.625000 0.000000
vt 0.625000 0.125000
vt 0.625000 0.250000
vt 0.500000 0.250000
vt 0.375000 0.250000
vt 0.500000 0.375000
vt 0.375000 0.375000
vt 0.625000 0.375000
vt 0.625000 0.500000
vt 0.500000 0.500000
vt 0.250000 0.750000
vt 0.375000 0.750000
vt 0.375000 0.625000
vt 0.625000 0.625000
vt 0.500000 0.625000
vt 0.625000 0.750000
vt 0.500000 0.750000
vt 0.625000 0.875000
vt 0.500000 0.875000
vt 0.625000 1.000000
vt 0.500000 1.000000
vt 0.375000 0.875000
vt 0.375000 1.000000
vt 0.125000 0.500000
vt 0.250000 0.500000
vt 0.250000 0.625000
vt 0.125000 0.625000
vt 0.375000 0.500000
vt 0.125000 0.750000
vt 0.750000 0.500000
vt 0.750000 0.625000
vt 0.875000 0.500000
vt 0.875000 0.625000
vt 0.875000 0.750000
vt 0.750000 0.750000
s 0
usemtl Material
f 1/1/1 10/2/1 21/3/1 9/4/1
f 10/2/2 2/5/2 11/6/2 21/3/2
f 21/3/3 11/6/3 4/7/3 12/8/3
f 9/4/4 21/3/4 12/8/4 3/9/4
f 3/9/5 12/8/5 22/10/5 13/11/5
f 12/8/6 4/7/6 14/12/6 22/10/6
f 22/10/7 14/12/7 8/13/7 15/14/7
f 19/15/8 5/16/8 30/16/8 33/15/8
f 5/16/9 16/17/9 31/17/9 30/16/9
f 15/14/10 8/13/10 17/18/10 23/19/10
f 23/19/11 17/18/11 6/20/11 18/21/11
f 13/11/12 22/10/12 34/10/12 28/11/12
f 23/19/13 18/21/13 32/21/13 35/19/13
f 18/21/14 6/20/14 20/22/14 24/23/14
f 24/23/15 20/22/15 2/24/15 10/25/15
f 19/26/16 24/23/16 10/25/16 1/27/16
f 3/28/17 13/29/17 25/30/17 9/31/17
f 13/29/18 7/32/18 16/17/18 25/30/18
f 25/30/19 16/17/19 5/16/19 19/15/19
f 9/31/20 25/30/20 19/15/20 1/33/20
f 8/13/21 14/34/21 26/35/21 17/18/21
f 14/34/22 4/36/22 11/37/22 26/35/22
f 26/35/23 11/37/23 2/38/23 20/39/23
f 17/18/24 26/35/24 20/39/24 6/20/24
f 28/11/25 34/10/25 29/14/25 27/32/25
f 27/32/26 29/14/26 35/19/26 31/17/26
f 31/17/27 35/19/27 32/21/27 30/16/27
f 30/16/28 32/21/28 36/23/28 33/26/28
f 7/32/29 13/29/29 28/29/29 27/32/29
f 16/17/30 7/32/30 27/32/30 31/17/30
f 15/14/31 23/19/31 35/19/31 29/14/31
f 24/23/32 19/26/32 33/26/32 36/23/32
f 18/21/33 24/23/33 36/23/33 32/21/33
f 22/10/34 15/14/34 29/14/34 34/10/34
